<svg width="32" height="30" viewBox="0 0 32 30" fill="none" xmlns="http://www.w3.org/2000/svg">
<path id="Star 13" d="M14.1071 1.54825C14.7231 -0.25737 17.2769 -0.257375 17.8929 1.54825L20.2528 8.46544C20.5291 9.27529 21.29 9.81966 22.1457 9.81966H29.5669C31.5279 9.81966 32.3175 12.3485 30.7049 13.4643L24.8716 17.5007C24.1362 18.0095 23.828 18.9447 24.1167 19.7911L26.384 26.4368C27.0068 28.2624 24.9393 29.8248 23.3531 28.7273L17.138 24.4268C16.4533 23.953 15.5467 23.953 14.862 24.4268L8.64689 28.7273C7.06069 29.8248 4.99317 28.2624 5.616 26.4368L7.88328 19.7911C8.17204 18.9447 7.86383 18.0095 7.12843 17.5007L1.29509 13.4643C-0.317499 12.3485 0.472111 9.81966 2.4331 9.81966H9.85435C10.71 9.81966 11.4709 9.2753 11.7472 8.46544L14.1071 1.54825Z" fill="#FFD700"/>
</svg>
